<svg xmlns="http://www.w3.org/2000/svg" viewBox="0 0 5995 1457"><g fill="#103952"><path fill="#B53B46" d="M2178.113 808.834c1.465-5.995 5.812-4.693 9.16-4.764 10.994-.232 21.995-.139 32.994-.1 29.996.107 59.993.235 89.99.403 2.942.017 5.882.371 8.626.555 2.142 6.952 3 536.907.912 557.247h-9.34c-37.321-.005-74.648-.375-111.96.202-11.527.179-18.776-3.109-25.377-13.222-20.19-30.934-41.61-61.07-62.77-91.364-35.465-50.772-71.266-101.31-106.578-152.188-14.992-21.6-29.115-43.805-43.613-65.748-2.706-4.096-4.847-8.738-10.752-10.395-3.683 3.782-3.066 8.596-3.12 13.024a5802.46 5802.46 0 0 0-.452 63.99c-.073 60.661-.06 121.323-.084 181.986-.009 21.655 0 43.31-.084 64.966-.01 2.597-.557 5.192-.905 8.224-2.321.265-4.208.664-6.097.667-39.985.074-79.971.106-119.957.135-2.996.002-5.993-.043-8.988-.142-4.327-.144-7.345-2.202-9.772-5.866-16.544-24.974-32.918-50.07-49.943-74.715-24.035-34.793-48.665-69.174-72.894-103.834a28730.396 28730.396 0 0 1-83.828-120.578c-4.153-6.008-7.368-12.657-11.283-18.84-2.021-3.194-4.628-6.017-7.317-9.45-5.675 4.543-4.498 9.852-4.568 14.511-.353 23.327-.5 46.657-.637 69.987-.471 80.655-.905 161.31-1.372 241.966-.01 1.93-.24 3.858-.4 6.267h-140.927V805.08c2.98-.341 6.131-1.016 9.28-1.014 42.662.034 85.324.249 127.986.187 7.679-.011 12.237 2.564 16.698 9.495 13.854 21.528 28.99 42.232 43.703 63.204 31.906 45.48 63.993 90.835 95.747 136.42 24.358 34.968 48.29 70.231 72.511 105.294 2.114 3.06 4.966 5.612 7.475 8.4l2.46-.82c.485-4.766 1.384-9.53 1.39-14.297.048-34.996-.124-69.992-.15-104.988-.045-62.995-.037-125.99-.051-188.986V805.13c3.478-.418 6.33-1.058 9.183-1.058 42.329.002 84.659.266 126.985.014 9.015-.053 13.962 3.275 18.841 11.052 11.634 18.547 24.811 36.128 37.439 54.048a76258.722 76258.722 0 0 0 74.208 105.127c21.913 30.987 44.043 61.82 65.756 92.946 9.32 13.36 17.773 27.32 26.73 40.937 2.728 4.147 5.709 8.144 8.816 12.016.87 1.083 2.603 1.472 4.652 2.556 2.849-8.337 2.994-16.19 2.928-24.07-.444-53.318-1.04-106.635-1.298-159.954-.207-42.991-.007-85.984.047-129.911z"/><path d="M4855.787 810.37c.03-4.287.678-7.004 4.933-6.745 1.66.101 3.33.085 4.996.089 39.327.08 78.654.157 117.98.234 1.667.004 3.334.056 4.999.002 9.624-.309 16.368 1.743 22.584 11.452 17.214 26.883 36.764 52.263 55.201 78.37 32.448 45.951 64.893 91.906 97.065 138.049 17.133 24.572 33.581 49.622 50.606 74.27 3.518 5.096 8.222 9.371 13.283 15.035 2.905-6.316 2.682-11.475 2.664-16.58-.206-58.654-.49-117.307-.614-175.96-.081-37.994.065-75.987.108-113.98.004-3.3 0-6.599 0-11.207 48.292-1.169 95.662.308 143.054.762v558.004c-4.37 0-7.627.006-10.883 0-37.323-.078-74.646-.156-111.97-.24-2.998-.007-6.001.023-8.995-.113-4.619-.208-7.949-2.307-10.663-6.243-25.329-36.72-50.702-73.413-76.27-109.967-23.088-33.01-46.474-65.811-69.66-98.753a18923.943 18923.943 0 0 1-56.698-80.966c-4.935-7.09-9.32-14.56-14.212-21.68-3.206-4.665-6.845-9.052-14.87-8.572-1.365 21.421.02 42.95-.266 64.425-.289 21.66-.07 43.325-.062 64.988.008 21.996.045 43.993.045 65.989 0 21.663-.038 43.326-.047 64.989-.01 21.563-.003 43.127-.003 65.4h-141.925c-.368-2.061-.892-3.629-.892-5.196.056-177.632.15-355.265.252-532.897.002-3.998.124-7.996.26-12.959zm-92.609 146.6c11.1 27.268 20.427 54.283 23.674 82.98 4.447 39.306 4.365 78.451-5.631 117.05-7.453 28.778-17.39 56.674-33.332 81.94-19.328 30.631-42.683 57.373-73.046 78.1-27.552 18.808-56.973 32.937-89.016 41.41-31.894 8.432-64.21 14.693-97.527 13.353-46.627-1.874-92.022-9.683-134.427-29.914-54.1-25.81-96.91-64.005-125.168-117.531-26.13-49.496-37.998-102.557-34.03-158.012 4.745-66.304 26.155-126.938 71.931-176.98 32.303-35.314 71.421-60.176 116.707-75.936 32.11-11.173 65.218-15.91 98.781-18.48 24.779-1.899 49.146 2.188 73.449 6.498 48.364 8.578 92.343 27.12 131.25 57.343 28.313 21.995 50.666 48.964 67.481 80.568 2.97 5.581 5.705 11.288 8.904 17.61m-168.892 1.742c-20.645-19.204-45.684-29.39-72.834-34.845-21.478-4.315-42.966-4.042-64.238 1.863-19.316 5.362-37.836 12.544-53.94 24.748-7.65 5.797-15.484 11.705-21.812 18.827-16.77 18.875-28.78 40.563-34.856 65.266-11.395 46.324-8.713 91.381 14.473 133.72 15.892 29.022 38.662 51.197 69.906 64.145 23.622 9.79 48.012 13.043 73.274 11.58 55.31-3.204 96.075-29.79 121.014-78.696 21.59-42.339 24.197-87.245 11.8-133.125-7.543-27.913-20.604-52.509-42.787-73.483zm-3243.425 202.08c-6.81 30.356-19.269 57.285-35.459 82.812-16.603 26.179-37.174 48.618-61.568 67.406-21.426 16.503-45.254 28.988-70.558 38.722-25.283 9.727-51.609 15.102-78.178 19.37-26.817 4.31-53.784 3.545-80.633.098-24.422-3.135-48.495-7.88-71.867-16.05-24.96-8.726-48.348-20.152-69.98-35.512-27.476-19.512-50.73-43.018-69.81-70.679-15.034-21.797-25.462-45.781-33.617-70.937-11.878-36.642-15.44-74.208-12.949-112.354 3.868-59.234 22.212-113.142 59.74-160.042 35.805-44.747 80.953-75.075 135.47-92.535 35.287-11.302 71.428-17.269 108.063-16.075 61.487 2.003 119.94 16.76 171.513 51.97 39.472 26.947 70.467 61.597 90.874 105.332 22.623 48.482 30.946 99.573 27.601 152.545-1.167 18.485-5.48 36.771-8.642 55.93m-201.243-213.495c-26.296-17.26-55.048-26.126-86.627-25.96-24.795.13-47.814 6.638-70.024 17.303-29.792 14.306-51.376 37.04-64.894 66.427-16.644 36.185-21.977 74.457-13.984 114.063 7.943 39.359 26.739 72.032 58.555 96.981 19.697 15.445 42.327 23.717 66.772 26.88 34.813 4.504 68.695.875 99.672-16.783 41.542-23.68 63.518-61.37 72.874-107.031 4.582-22.364 3.959-45.119.012-67.565-7.397-42.075-24.577-78.58-62.356-104.315zM2576 803.79h229.259c.147 17.653.387 34.25.4 50.847.018 21.98-.135 43.96-.255 65.94-.003.612-.465 1.222-1.262 3.182-2.833.188-6.315.621-9.797.62-78.987-.01-157.974-.068-236.961-.117-16.91-.01-16.938-.011-16.914 16.377.032 22.33.086 44.66.2 66.989.017 3.228.416 6.455.673 10.19 86.426.925 171.96-.837 258.344 1.083v121.226c-85.326-.002-171.053.107-256.414-.672-3.293 9.66-4 88.643-1.017 101.185 87.192 3.106 174.721-1.64 263.162 1.484 1.656 39.967-1.982 79.343-.306 118.515-10.531 2.257-400.809 1.083-406.985-1.005-3.244-29.495-2.074-538.746 1.592-555.844H2576zm3169.982 560.283c-33.902 7.548-67.268 9.403-101.046 6.568-25.24-2.118-50.285-5.222-75.013-10.703-50.051-11.094-94.13-34.268-133.656-66.494-10.118-8.249-9.78-11.44-1.892-22.342 17.753-24.537 34.993-49.446 52.523-74.145 4.557-6.42 9.417-12.625 14.793-19.802 5.059 3.769 9.225 6.39 12.83 9.634 33.511 30.157 72.518 49.038 116.81 57.005 24.373 4.385 48.927 5.96 73.575 2.758 6.893-.896 13.732-2.632 20.42-4.583 13.794-4.023 23.923-12.901 30.854-25.285 7.662-13.687 3.476-32.71-8.958-42.187-13.201-10.062-28.408-16.14-44.22-20.102-31.905-7.993-64.114-14.768-96.068-22.58-25.514-6.237-50.98-13.028-74.63-24.751-29.973-14.858-56.883-33.586-72.201-64.797-17.38-35.41-21.563-72.227-11.219-110.6 12.372-45.89 39.728-80.124 80.84-103.117 28.083-15.707 58.157-26.122 90.578-28.79 11.596-.954 23.116-3.248 34.717-3.677 39.211-1.45 77.614 4.054 115.554 13.92 31.554 8.206 60.733 21.57 88.2 38.801 8.997 5.644 17.398 12.301 25.713 18.944 6.958 5.559 6.974 8.05 1.644 14.828-8.847 11.25-17.868 22.366-26.537 33.752-12.08 15.866-23.869 31.953-35.865 47.884-2.535 3.366-5.423 6.466-8.547 10.16-7.562-4.456-14.468-8.367-21.218-12.531-38.482-23.739-79.742-39.597-125.084-43.3-16.963-1.385-33.926-.896-50.085 5.888-10.458 4.39-19.84 10.646-24.468 20.942-10.176 22.64-2.672 38.336 19.048 47.89 21.26 9.353 44.112 14.478 67.059 18.918 43.449 8.407 86.57 18.356 127.468 35.836 25.31 10.818 48.586 24.76 66.638 46.258 9.544 11.365 16.827 23.75 21.435 37.944 13.5 41.577 11.7 82.78-3.532 123.281-13.337 35.464-36.887 62.803-69.98 81.573-23.613 13.393-48.871 22.287-76.48 27.002zm-5402.454-27.645c-28.133-15.09-53.545-32.816-74.589-55.882-26.524-29.073-46.607-62.277-58.705-99.925-10.342-32.18-17.058-65.16-15.847-99.062 2.13-59.652 16.302-115.902 51.246-165.448 37.017-52.486 86.978-86.958 148.118-105.989 34.695-10.8 70.37-16.224 106.323-15.073 57.848 1.85 112.748 15.68 160.05 51.26 26.342 19.816 48.171 43.913 64.355 72.877 3.08 5.513 6.981 10.57 10.048 16.09 4.666 8.397 3.301 11.41-5.203 15.304-27.18 12.444-54.292 25.036-81.389 37.66a694.594 694.594 0 0 0-25.067 12.271c-4.055 2.092-6.989 1.338-9.296-2.39-1.399-2.261-2.786-4.548-3.943-6.938-13.591-28.083-36.384-46.162-64.272-58.331-17.844-7.786-36.684-12.312-56.242-11.952-9.238.17-18.681 1.37-27.616 3.698-47.921 12.48-84.963 39.584-105.633 85.162-14.969 33.006-19.787 68.147-13.214 104.45 7.168 39.582 25.672 72.729 56.503 98.267 21.39 17.718 46.486 28.534 74.429 31.118 25.842 2.39 51.118.439 75.11-11.149 25.948-12.531 46.743-30.348 60.692-55.76 6.955-12.67 6.766-12.394 20.1-5.991 24.88 11.947 49.95 23.5 74.933 35.232 11.046 5.187 22.074 10.411 34.07 16.07-1.95 4.87-2.997 9.486-5.427 13.195-8.753 13.357-17.427 26.826-27.121 39.494-25.802 33.716-58.057 59.47-97.796 74.917-41.996 16.323-85.6 24.872-130.78 21.886-46.499-3.074-91.548-12.547-133.837-35.061zM3235.755 940.14c-35.969-19.274-72.376-24.762-111.266-11.673-25.522 8.59-47.746 21.966-66.149 41.185-8.419 8.791-15.458 19.276-21.468 29.926-13.646 24.18-20.006 50.61-20.718 78.327-1.31 50.959 15.163 94.926 52.994 129.722 24.57 22.599 54.041 34.773 87.52 36.239 10.936.478 22.13.824 32.866-.898 42.779-6.86 74.645-29.963 96.42-67.24 1.83-3.132 3.623-6.285 6.002-10.416 6.701 2.685 13.179 4.938 19.364 7.818 30.433 14.165 60.788 28.496 91.169 42.773a83.036 83.036 0 0 1 3.577 1.771c7.303 3.872 8.137 5.796 4.169 13.348-4.175 7.944-8.503 15.875-13.541 23.283-14.065 20.68-29.096 40.535-48.854 56.38-18.246 14.632-37.513 27.662-58.97 36.946-27.313 11.82-56.151 18.77-85.583 22.252-53.918 6.378-106.303-1.931-156.85-20.742-31.104-11.574-58.69-29.646-83.615-51.694-35.18-31.12-60.343-68.753-75.53-113.27-12.833-37.618-19.452-76.202-16.854-115.787 1.321-20.115 5.465-40.175 9.816-59.933 9.029-40.996 27.424-77.702 54.298-109.931 33.635-40.338 75.696-68.315 125.44-85.299 36.646-12.51 74.37-19.147 112.752-18.293 61.527 1.367 118.954 17.337 168.78 55.423 15.462 11.817 29.112 25.482 40.348 41.29 9.431 13.268 18.07 27.128 26.537 41.045 6.324 10.393 4.39 14.176-6.583 18.836-13.449 5.71-26.646 12.023-39.865 18.26-21.32 10.057-42.565 20.275-63.852 30.403-4.666 2.22-6.936 1.302-10.318-4.236-3.968-6.497-7.69-13.15-11.795-19.557-9.945-15.521-24.19-26.375-40.241-36.258zm534.458 419.355c-2.472 1.513-4.598 2.644-6.727 2.649-42.315.094-84.63.059-126.946.05h-8.376c-.365-2.905-.881-5.101-.882-7.297-.023-78.974-.072-157.948.045-236.922.085-57.645.42-115.29.567-172.934.011-4.566-.581-9.133-.958-14.645-10.68-.294-20.577-.8-30.475-.796-37.655.019-75.31.273-112.963.287-13.222.005-13.334-.196-13.229-13.208.272-33.652.638-67.302 1.005-100.953.04-3.614.334-7.226.566-11.957 4.319-.27 8.142-.722 11.965-.717 92.625.124 185.25.287 277.875.464 52.978.102 105.956.24 158.934.385.974.002 1.947.292 3.834.595.41 2.276 1.236 4.753 1.246 7.235.147 36.654.199 73.31.214 109.964 0 1.923-.529 3.846-.929 6.565-6.484.393-12.74 1.07-18.999 1.104-39.987.219-79.974.276-119.96.45-4.6.02-9.198.434-14.67.709-.42 4.493-1.098 8.364-1.098 12.235.016 118.295.093 236.59.175 354.885.013 20.315.085 40.63-.214 61.852z"/></g><path fill="#103952" d="M2349.044 393.998c-.007-92.252-.007-183.503-.007-275.131 2.755-.46 4.629-1.048 6.503-1.048 75.634.013 151.278-.586 226.899.44 33.752.457 65.647 9.444 93.398 30.263 17.294 12.973 30.273 29.227 37.645 49.322 10.006 27.271 13.711 55.504 8.715 84.457-4.652 26.96-16.368 50.641-34.903 70.575-11.29 12.141-26.23 19.107-41.64 24.86-3.964 1.481-7.824 3.246-13.421 5.586 2.892 1.522 4.062 2.412 5.38 2.793 53.12 15.346 82.819 52.175 94.105 104.679 6.185 28.775 4.465 57.77-5.82 85.617-15.613 42.28-45.437 69.32-88.906 81.645-17.482 4.957-35.323 7.102-53.243 7.232-74.963.547-149.93.468-224.897.593-2.648.004-5.298-.256-9.264-.46-.779-45.267-.028-90.379-.133-135.482-.104-44.98-.267-89.961-.41-135.941M2437 624.014c35.998-.016 71.998-.295 107.992.049 22.39.213 44.502-.869 66.429-6.051 34.716-8.206 57.803-29.324 69.006-62.629 7.312-21.737 8.733-44.597 3.195-67.052-6.116-24.801-17.68-46.505-39.564-61.557-19.864-13.663-41.94-20.274-65.703-20.48-58.323-.504-116.652-.397-174.978-.478-2.53-.003-5.061.565-7.337.837-3.091 13.568-2.819 208.805.304 217.361zm238.44-355.576c.637-12.05-.43-23.92-3.282-35.673-6.385-26.306-20.763-46.178-44.943-59.24-17.272-9.33-35.87-12.83-54.787-13.076-55.627-.722-111.27-.39-166.906-.268-10.757.023-11.09.765-11.575 11.243a85.574 85.574 0 0 0-.065 3.998c.023 59.644.04 119.289.112 178.933.003 2.526.528 5.051.914 8.518 4.014 0 7.29-.02 10.564.003 41.983.284 83.97 1.034 125.948.676 22.268-.19 44.752-.707 66.728-3.904 36.469-5.307 60.781-26.896 72.32-61.935 2.879-8.742 3.348-18.278 4.972-29.275zM4129.756 1234l-.001 127.454h-142.053c-2.461-9.656-1.968-545.207.58-557.15 46.321-1.914 92.807-.78 140.49-.116.365 5.928 1 11.46 1.002 16.994.045 124.278.021 248.556.008 372.834-.001 12.995-.016 25.99-.026 39.984zm309.669-946V119.094c15.05-1.926 29.175-.578 43.961-1.39V666.54c-13.82-.617-26.656-1.062-39.472-1.832-4.617-.277-7.532-3.337-10.236-7.083-22.994-31.86-46.18-63.581-69.305-95.346-27.432-37.68-54.88-75.347-82.287-113.045-32.695-44.972-65.34-89.98-98.03-134.955-21.92-30.159-43.826-60.328-65.855-90.406-6.078-8.298-12.552-16.308-18.915-24.394-.974-1.237-2.338-2.167-5.078-4.646-.706 4.786-1.585 8.06-1.613 11.34-.266 31.995-.559 63.99-.524 95.984.116 109.654.357 219.307.57 328.961.015 7.999.246 15.997.254 23.995.003 3.242-.324 6.485-.536 10.368h-43.981c-1.065-45.398-.427-90.877-.762-136.334-.336-45.66-.135-91.323-.142-136.984-.006-45.329.028-90.657.034-135.985.007-45.606.001-91.212.001-137.315 3.25-.407 5.446-.905 7.645-.919 10.332-.064 20.666.131 30.995-.024 5.512-.083 9.407 2.124 12.648 6.512 18.796 25.444 37.763 50.76 56.593 76.18 25.171 33.978 50.317 67.976 75.39 102.028 45.983 62.452 91.993 124.884 137.807 187.46 17.5 23.902 34.4 48.243 51.775 72.239 5.06 6.99 10.813 13.477 16.476 20.476 4.06-3.597 3-7.545 3-10.871.009-15.991-.55-31.982-.553-47.974-.016-78.323.081-156.647.14-235.97zm219.365 8v67.228c50.222 1.207 99.06.352 147.882.509 48.905.157 97.81.034 147.218.034v40.878c-5.27 0-9.82-.05-14.371.01-17.657.23-35.313.683-52.97.717-55.66.11-111.319.142-166.978.035-15.989-.031-31.976-.72-47.966-.95-10.187-.145-11.59 1.047-11.61 11.453-.124 66.645-.106 133.29-.074 199.936 0 2.56.62 5.12 1.017 8.203h299.89c2.266 14.132-.162 27.756-.537 41.673h-345.435c0-61.005.002-121.489 0-181.972-.003-60.99-.384-121.982.088-182.968.47-60.584-1.771-121.187-.032-182.404h345.635v41.412h-299.322c-.523 4.815-1.338 9.028-1.382 13.249-.426 40.652-.72 81.305-1.052 122.958zM1824 405.54c-30.215.206-59.448-.598-90.06.475.17 73.234-2.061 145.286-.004 218.036h299.907v41.762c-115.56-.483-230.253.353-344.917-.026V118.392h344.389v41.086h-11.93c-90.977.027-181.955 0-272.932.142-13.283.02-14.752-2.433-14.729 14.997.062 45.65.027 91.3.03 136.95v51.089c9.494.363 18.334.98 27.175.997 84.979.161 169.958.222 254.937.311 3.615.004 7.23 0 10.61 0 2.402 7.374 2.833 28.29.854 41.192-67.314.128-134.822.257-203.33.385zM195.354 208.305c-.002-30.55-.002-60.138-.002-90.143h343.395c2.538 8.476 2.877 28.294.654 41.65H241.586c-.607 4.841-1.515 8.735-1.522 12.63-.112 61.65-.111 123.3-.113 184.95 0 1.288.272 2.576.528 4.847 2.934.29 5.758.798 8.585.815 57.644.336 115.289.686 172.934.882 34.657.117 69.315-.033 103.973-.03 2.917 0 5.835.239 9.4.396v40.986H241.619c-.59 5.13-1.479 9.289-1.486 13.45-.123 65.649-.144 131.298-.127 196.947 0 2.552.615 5.105 1.01 8.187h298.942c3.041 14.213 1.475 27.855.286 41.607H195.355l-.001-457.174zm5409.374-21.592c-18.764 17.485-28.25 39.047-29.4 63.356-1.161 24.583 8.431 45.463 28.452 60.822 15.758 12.087 33.411 20.652 52.116 26.82 22.087 7.282 44.436 13.786 66.74 20.4 35.711 10.589 71.514 20.89 104.676 38.417 24.218 12.8 45.5 28.736 59.39 53.203 8.388 14.775 12.359 30.817 15.109 47.248 4.375 26.136 1.806 51.763-7.056 76.706-8.052 22.665-20.581 42.35-38.944 58.207-20.606 17.793-44.614 28.26-70.838 34.657-22.41 5.467-45.104 9.425-68.06 8.671-38.595-1.267-77.06-4.261-113.572-18.924-32.356-12.994-60.049-32.732-84.698-57.036-7.475-7.37-7.461-9.117-1.705-17.97 6.82-10.492 16.961-21.022 24.212-24.991.961.576 2.339 1.013 3.148 1.944 31.856 36.637 71.098 60.485 119.11 69.543 25.296 4.773 50.55 8.563 76.332 4.158 19.37-3.309 38.682-6.845 56.644-15.23 23.913-11.165 42.454-28.665 51.547-53.208 10.45-28.21 11.658-57.508-2.902-85.286-7.727-14.743-19.889-25.522-34.172-34.184-24.422-14.81-50.949-24.3-78.218-31.965-36.8-10.344-73.737-20.264-109.431-34.092-20.853-8.077-40.646-18.126-57.945-32.726-16.363-13.81-27.116-31.351-32.887-51.43-15.838-55.102-.644-101.844 41.037-140.13 21.75-19.977 48.05-31.375 76.711-38.457 43.876-10.84 87.304-8.309 130.407 2.838 41.123 10.634 76.79 31.41 106.796 61.643.93.937 1.738 2.01 2.51 3.087.376.527.536 1.21 1.184 2.75-7.464 12.794-18.659 22.74-30.135 33.357-5.053-5.42-9.03-10.241-13.566-14.463-32.258-30.028-70.813-46.227-114.135-52.488-32.544-4.703-63.655.161-93.85 12.184-12.736 5.071-24.292 12.31-34.607 22.57zM3608.866 365.304c31.784 9.336 62.061 20.247 90.122 36.61 42.136 24.57 64.441 61.154 66.928 109.925 1.328 26.04-2.113 51.074-13.653 74.77-11.172 22.943-26.729 41.786-48.298 55.864-25.344 16.541-53.291 24.662-82.844 29.57-31.665 5.26-62.951 2.823-94.43-.643-31.52-3.471-61.12-12.7-88.728-28.204-21.629-12.146-41.139-27.098-57.807-45.547-6.701-7.418-6.494-10.366-.097-18.049 4.684-5.625 9.333-11.28 13.975-16.94 6.275-7.652 7.922-7.839 14.828-.957 17.525 17.465 36.39 33.078 58.236 45.054 20.385 11.176 42.055 18.107 64.797 22.222 16.734 3.028 33.524 6.014 50.572 4.844 29.057-1.993 57.77-6.88 83.537-20.967 27.06-14.795 43.717-38.231 49.902-68.797 5.175-25.577 1.98-49.615-12.263-71.858-6.778-10.587-15.83-18.8-26.2-25.671-21.582-14.304-45.51-23.276-70.123-30.65-33.423-10.013-66.877-19.92-100.275-30.013-20.452-6.18-39.76-14.919-58.305-25.608-34.955-20.148-54.173-50.645-58.574-90.113-5.974-53.576 15.726-95.292 58.222-126.705 18.892-13.965 40.487-22.325 63.453-27.864 28.856-6.96 57.746-9.31 87.184-5.629 44.265 5.537 85.957 18.136 121.924 45.556 11.292 8.609 21.41 18.759 33.019 29.049-4.276 6.072-7.745 11.643-11.873 16.675-3.788 4.619-8.235 8.708-12.484 12.938-5.655 5.63-7.01 5.3-12.728-.802-6.588-7.034-13.035-14.36-20.487-20.394-23.134-18.726-49.604-30.698-78.74-36.713-17.619-3.637-35.328-7.108-53.422-5.95-29.901 1.913-58.81 7.853-83.701 25.75-20.835 14.981-36.653 33.998-41.424 60.082-4.727 25.834.962 48.87 20.02 67.906 15.461 15.44 34.323 25.163 54.689 31.906 25.227 8.352 50.75 15.81 76.153 23.634 6.033 1.859 12.093 3.633 18.895 5.72zm1692.849-205.328c-25.265-7.115-50.147-12.034-75.65-9.625-37.644 3.557-72.218 14.448-98.714 43.86-23.051 25.59-29.535 66.537-12.97 94.748 10.024 17.073 25.704 28.578 43.411 37.115 27.992 13.496 57.754 21.79 87.586 30.046 37.82 10.466 75.402 21.78 110.497 39.896 15.763 8.136 30.375 17.703 42.792 30.647 18.146 18.916 28.857 41.063 32.59 67.028 4.352 30.268 3.07 59.932-9.302 88.142-11.437 26.078-28.43 47.464-53.464 62.698-24.735 15.051-51.415 22.59-79.496 27.406-32.631 5.598-64.879 2.533-97.38-1.194-31.655-3.63-60.852-13.603-88.362-29.183-20.146-11.41-37.857-25.99-54.059-42.412-7.585-7.69-7.587-10.38-1.05-18.763 4.706-6.037 9.578-11.948 14.487-17.82 5.207-6.23 7.754-6.383 13.746-.337 13.872 13.998 28.904 26.437 45.456 37.26 21.519 14.07 44.9 23.111 69.902 28.087 19.595 3.9 39.358 7.479 59.456 6.25 28.436-1.74 56.66-6.484 81.681-20.314 32.047-17.713 50.242-45.647 52.762-82.994 1.845-27.34-5.217-51.461-24.724-71.212-4.4-4.454-9.476-8.347-14.644-11.915-26.98-18.627-57.874-27.953-88.809-37.28-34.671-10.455-69.348-20.933-103.74-32.255-18.397-6.057-35.158-15.975-50.77-27.396-19.65-14.373-32.728-33.35-39.902-56.953-15.645-51.474-.455-94.955 33.47-133.622 6.26-7.135 14.47-12.83 22.499-18.093 29.874-19.582 63.091-29.137 98.516-32.07 37.744-3.124 74.297 2.033 110.117 13.994 30.153 10.069 56.94 25.576 79.974 47.53 4.288 4.086 8.747 7.994 13.657 12.466-1.848 3.25-3.115 6.334-5.113 8.833-5.613 7.02-11.341 13.966-17.378 20.62-5.119 5.643-7.773 5.428-13.147.092-5.436-5.397-10.758-10.924-16.418-16.077-19.31-17.582-42.597-28.08-67.507-37.203zm-2356.51 434.847c21.707 20.326 47.676 29.498 75.562 35.131 41.915 8.468 82.334 3.505 120.998-13.637 30.358-13.46 51.738-36.821 65.92-66.782 13.689-28.921 17.94-59.908 18.3-91.332.64-55.967.14-111.946.16-167.92.017-51.981.067-103.963.177-155.945.011-5.229.54-10.457.872-16.466h45.09c.255 2.778.861 6.241.848 9.702-.406 108.624-.557 217.25-1.513 325.87-.305 34.645-3.397 69.156-15.708 102.126-12.649 33.875-32.024 62.85-61.85 83.904-15.58 10.997-33.041 18.849-51.184 24.328-26.205 7.913-53.198 12.363-80.69 11.57-26.308-.758-52.695-2.839-78.1-9.727-43.264-11.73-78.372-35.403-102.548-74.196-21.88-35.111-32.357-73.488-33.935-114.409-1.052-27.292-1.224-54.63-1.276-81.949-.17-88.302-.102-176.604-.125-264.907v-12.126h45.326c.162 4.514.444 8.691.441 12.869-.044 65.976-.226 131.953-.162 197.93.043 44.981-.085 89.973.816 134.941.637 31.857 6.36 62.773 21.513 91.47 7.894 14.949 17.767 28.08 31.068 39.555zM1554.003 159.214c-44.915-.006-88.831-.006-133.882-.006-.585 6.81-1.48 12.639-1.525 18.474-.324 41.643-.622 83.287-.652 124.931-.082 113.942-.034 227.883-.004 341.824.001 4.657.336 9.315.519 13.973.15 3.81-1.238 6.954-5.315 7.032-12.896.247-25.8.091-39.57.091-.479-5.37-1.23-9.917-1.228-14.464.006-17.655.4-35.31.384-52.966-.117-131.262-.298-262.525-.461-393.787-.016-12.32.093-24.644-.124-36.961-.128-7.281-.742-7.78-8.248-7.813-39.288-.17-78.576-.288-117.864-.36-14.256-.027-28.512.178-42.767.15-2.916-.007-5.832-.589-9.295-.965V118.44h403.927v39.526c-7.451 3.773-14.826.959-21.914 1.39-6.965.424-13.985-.053-21.98-.142zM740 665.765c-26.327.005-51.654.015-76.982.02-2.332 0-4.666.022-6.997-.052-4.178-.134-5.578-2.332-5.55-6.47.377-54.952.824-109.906.872-164.859.106-121.304-.005-242.608-.027-363.913V118.36h43.317c.39 4.127 1.121 8.218 1.113 12.308-.104 51.985-.418 103.97-.474 155.955-.093 86.978-.085 173.957-.014 260.936.018 21.659.416 43.318.702 64.977.047 3.587.419 7.17.685 11.484h265.414c1.266 13.972-.026 27.394.047 41.748-74.153 0-147.63 0-222.106-.002zM3916.709 360c.002 102.205.002 203.41.002 305.373h-44.009V118.538h44.154c.278 5.733.83 11.612.809 17.49-.272 74.324-.625 148.648-.956 223.972zm-2815.202 6c.057 100.45.04 199.9-.32 299.575-13.314 0-25.266.024-37.218-.029-1.607-.007-3.212-.407-4.07-.523-.947-.743-1.255-.908-1.452-1.16-.2-.255-.328-.585-.419-.902-.181-.632-.434-1.275-.449-1.918-.054-2.33-.023-4.662-.023-6.993V118.27h43.95V366z"/></svg>