<svg enable-background="new 0 0 5995 1457" viewBox="0 0 5995 1457" xmlns="http://www.w3.org/2000/svg">
    <g fill="#103952">
        <path fill="#B53B46" d="m2178.113281 808.83374c1.4646-5.995117 5.812012-4.692444 9.159424-4.763244 10.993897-.232727 21.995606-.1391 32.993897-.099915 29.996582.106751 59.993408.234497 89.989746.402771 2.942382.016541 5.882812.370789 8.62622.554932 2.14209 6.951904 3.000244 536.906677.912354 557.246277-3.003662 0-6.171631.000244-9.3396-.000123-37.321533-.004882-74.648681-.374511-111.961181.202881-11.526123.178223-18.774903-3.108886-25.375733-13.222778-20.189697-30.93396-41.611084-61.069458-62.770996-91.363525-35.464111-50.772461-71.265137-101.310303-106.577148-152.187745-14.99231-21.60083-29.115601-43.804809-43.613282-65.748291-2.705932-4.095581-4.846557-8.737792-10.751831-10.395141-3.682983 3.78186-3.066406 8.596435-3.120483 13.024414-.260742 21.328369-.426025 42.658935-.451538 63.989014-.072876 60.662109-.059326 121.324218-.083984 181.986328-.00879 21.655395.00061 43.311035-.083741 64.966186-.010009 2.596924-.557251 5.191895-.905761 8.22461-2.320923.26416-4.20813.663208-6.096192.666748-39.985718.07373-79.971557.106079-119.957275.134765-2.996094.002075-5.993531-.04248-8.987793-.14209-4.327271-.14392-7.345459-2.201538-9.772583-5.8656-16.543457-24.97461-32.918091-50.069946-49.942871-74.714844-24.035279-34.793091-48.665406-69.17456-72.894165-103.834839-28.045533-40.120727-55.987183-80.314331-83.827271-120.577881-4.153808-6.007446-7.368286-12.65625-11.283203-18.840088-2.021729-3.193237-4.628174-6.016235-7.317505-9.449707-5.67456 4.543457-4.497558 9.852417-4.568115 14.511353-.352783 23.326782-.50061 46.657227-.636841 69.986694-.470825 80.655274-.904785 161.310913-1.371582 241.966187-.011108 1.929687-.240723 3.858032-.400146 6.266723-47.119263 0-93.633545 0-140.927369 0 0-185.186767 0-370.309997 0-556.677307 2.981202-.340698 6.131226-1.015625 9.280762-1.013122 42.661865.033935 85.323975.248474 127.985596.186706 7.678467-.011169 12.237305 2.563599 16.698242 9.495301 13.854004 21.527465 28.990479 42.231689 43.703125 63.203735 31.905884 45.480408 63.992188 90.834839 95.746582 136.420532 24.357788 34.967163 48.290405 70.230347 72.510986 105.293701 2.114136 3.060547 4.965943 5.611573 7.475098 8.399414.819946-.273315 1.639893-.546752 2.459839-.820068.485351-4.765503 1.383911-9.530517 1.390381-14.296753.047485-34.995849-.123902-69.991943-.149414-104.988037-.046021-62.995178-.038086-125.990356-.052368-188.985535-.000855-3.970153-.000123-7.940368-.000123-12.845214 3.478882-.417786 6.331421-1.058472 9.18396-1.058289 42.328492.002014 84.658204.265625 126.984742.014221 9.014404-.053528 13.96228 3.274414 18.841186 11.052063 11.634155 18.546387 24.811157 36.128113 37.438355 54.047791 24.707397 35.062866 49.442016 70.106445 74.208496 105.127502 21.912842 30.986145 44.043213 61.819946 65.756103 92.945435 9.319336 13.359619 17.773194 27.320923 26.729492 40.937133 2.727784 4.147339 5.708741 8.14441 8.816163 12.015625.869628 1.083375 2.603515 1.472535 4.652099 2.556275 2.848633-8.336548 2.993653-16.190796 2.927979-24.070801-.444092-53.317505-1.040772-106.634216-1.297608-159.952698-.207275-42.991394-.007324-85.984741.046875-129.911682z"/>
        <path d="m4855.786621 810.370239c.03125-4.286926.678711-7.004394 4.933106-6.745056 1.661132.101257 3.330566.085083 4.996582.088501 39.32666.080933 78.65332.157349 117.97998.234619 1.666504.003235 3.333984.055298 4.998535.001892 9.624024-.308716 16.367676 1.74231 22.584473 11.451905 17.213867 26.882934 36.76416 52.262634 55.201172 78.370849 32.447754 45.950379 64.89209 91.904663 97.064453 138.047608 17.133301 24.572509 33.581055 49.62207 50.605957 74.271362 3.518555 5.094604 8.222168 9.370361 13.283203 15.034546 2.905273-6.316528 2.681641-11.475342 2.663574-16.581299-.205566-58.653198-.489258-117.306335-.613769-175.959778-.081055-37.99292.064941-75.986328.108398-113.979553.003418-3.299316 0-6.598633 0-11.206665 48.291992-1.168762 95.66211.307861 143.053711.761597v558.004516c-4.370605 0-7.626953.005738-10.882812-.000976-37.323243-.077637-74.646485-.155274-111.969727-.23938-2.998535-.006714-6.001465.022705-8.995117-.112549-4.619141-.208496-7.949219-2.307861-10.663086-6.24292-25.329102-36.720947-50.702149-73.412964-76.27002-109.967773-23.088379-33.009522-46.474609-65.810791-69.660156-98.752442-18.963867-26.943725-37.875488-53.924194-56.698242-80.966431-4.93457-7.089477-9.319336-14.560302-14.211914-21.680541-3.205567-4.664307-6.845215-9.051636-14.869629-8.571656-1.365234 21.421875.020019 42.949951-.266113 64.425537-.289063 21.659058-.070801 43.325074-.0625 64.988037.0083 21.996216.04541 43.992554.04541 65.98877-.000488 21.662842-.038574 43.325806-.047363 64.988647-.009278 21.563721-.002442 43.127442-.002442 65.400757-48.054687 0-94.788574 0-141.925781 0-.367676-2.061645-.891602-3.62915-.891113-5.196533.055664-177.632324.149902-355.264526.251953-532.896789.001953-3.997803.123535-7.995545.259277-12.958802z"/>
        <path d="m4763.177734 956.969849c11.09961 27.268554 20.427246 54.28302 23.674317 82.979614 4.447265 39.306885 4.365234 78.451538-5.631348 117.050171-7.452637 28.778442-17.38916 56.674804-33.332031 81.940796-19.328125 30.630615-42.682617 57.37207-73.04541 78.099121-27.552735 18.808838-56.973145 32.937256-89.016602 41.409912-31.893555 8.432861-64.208984 14.693237-97.526855 13.353882-46.626953-1.874512-92.021485-9.683106-134.427246-29.914063-54.09961-25.810058-96.90918-64.004883-125.167481-117.531738-26.130371-49.495728-37.998535-102.557007-34.029785-158.011963 4.745117-66.303955 26.154785-126.9375 71.931152-176.980225 32.302246-35.312927 71.420899-60.175781 116.707032-75.935058 32.108886-11.173462 65.217773-15.909424 98.780761-18.480652 24.778809-1.898254 49.145996 2.188721 73.448731 6.498779 48.363769 8.57721 92.343261 27.118836 131.249511 57.342102 28.313965 21.994995 50.666993 48.964051 67.481934 80.568726 2.970215 5.581116 5.70459 11.287353 8.90332 17.610596m-168.891601 1.741516c-20.645508-19.204651-45.684082-29.391297-72.834473-34.845337-21.478027-4.314636-42.96582-4.04187-64.237305 1.863037-19.316406 5.362366-37.836425 12.544311-53.940917 24.748169-7.649903 5.797119-15.483887 11.704468-21.811524 18.826294-16.769531 18.875061-28.779297 40.563904-34.855469 65.266784-11.395019 46.323731-8.713379 91.380982 14.472168 133.719849 15.892578 29.021607 38.662598 51.196777 69.90625 64.144898 23.622559 9.789795 48.012207 13.04309 73.273926 11.579834 55.310059-3.203736 96.075195-29.789551 121.01416-78.696045 21.590332-42.338868 24.196778-87.244629 11.799317-133.12439-7.542481-27.913696-20.603028-52.509094-42.786133-73.483093z"/>
        <path d="m1350.861084 1160.79126c-6.810547 30.355346-19.268677 57.28479-35.458984 82.812134-16.60315 26.178344-37.173829 48.617187-61.56836 67.406005-21.426147 16.502564-45.253906 28.987305-70.557739 38.721802-25.283325 9.726685-51.608521 15.101807-78.178223 19.370361-26.817016 4.308594-53.783935 3.544434-80.633178.097901-24.421631-3.13501-48.49469-7.880005-71.866211-16.050293-24.960999-8.72583-48.348816-20.151856-69.979676-35.512451-27.476867-19.512085-50.731628-43.017945-69.810363-70.678589-15.034607-21.797241-25.462098-45.781494-33.616883-70.937012-11.878479-36.642456-15.440185-74.208496-12.949279-112.354126 3.86798-59.233764 22.211853-113.141784 59.739746-160.04187 35.804931-44.746948 80.953308-75.07489 135.469421-92.535034 35.287598-11.301697 71.428162-17.268738 108.063171-16.075134 61.487427 2.003357 119.940918 16.760986 171.513672 51.969421 39.47229 26.947754 70.466919 61.597778 90.874146 105.332703 22.622314 48.482422 30.945434 99.573181 27.601074 152.54486-1.167114 18.485108-5.481201 36.771485-8.642334 55.929322m-201.24292-213.494568c-26.296387-17.260132-55.047729-26.125855-86.627075-25.9599-24.795532.130371-47.814087 6.638062-70.023865 17.302979-29.791931 14.305908-51.375976 37.040161-64.893799 66.427001-16.644897 36.184937-21.97705 74.457154-13.984314 114.062867 7.942993 39.359008 26.738892 72.032837 58.555176 96.981567 19.6969 15.44519 42.327149 23.716919 66.771607 26.879395 34.812866 4.503906 68.69519.875488 99.672485-16.782593 41.54126-23.679932 63.5177-61.370239 72.873291-107.031128 4.582275-22.364136 3.959228-45.118408.012695-67.565186-7.397461-42.074707-24.577148-78.580139-62.356201-104.315002z"/>
        <path d="m2576 803.789795c76.596924.000122 152.193848.000122 229.258789.000122.147705 17.653076.387207 34.249878.400635 50.846802.017822 21.980163-.135254 43.960449-.255371 65.940429-.003418.612244-.465332 1.221985-1.261719 3.181824-2.83374.188111-6.315674.621094-9.797607.620667-78.987061-.01062-157.973877-.068299-236.960938-.117615-16.909912-.010498-16.9375-.010986-16.914062 16.377014.032226 22.32959.086425 44.659302.200195 66.988648.016601 3.228637.416016 6.455261.672851 10.189636 86.425782.925293 171.959473-.83667 258.344239 1.083435v121.22644c-85.326416-.002075-171.053223.106568-256.414307-.672363-3.29248 9.660767-4 88.643066-1.016357 101.185547 87.191162 3.105835 174.720703-1.639527 263.161865 1.483765 1.655762 39.966918-1.982422 79.343139-.306152 118.514892-10.53125 2.256714-400.809082 1.08313-406.985352-1.005249-3.243408-29.495117-2.073486-538.74585 1.592529-555.844055 58.207276 0 116.743897 0 176.280762.000061z"/>
        <path d="m5745.982422 1364.073242c-33.902832 7.547363-67.268555 9.403076-101.046387 6.567993-25.239746-2.118408-50.285156-5.222656-75.012695-10.703491-50.051758-11.09375-94.129395-34.268188-133.65625-66.493652-10.117676-8.24878-9.779297-11.44104-1.892578-22.341797 17.753418-24.537598 34.993164-49.446167 52.523926-74.145386 4.55664-6.420044 9.416992-12.624512 14.79248-19.802368 5.059082 3.769287 9.224609 6.390259 12.82959 9.634399 33.511719 30.156861 72.518066 49.037598 116.810547 57.005127 24.373047 4.384522 48.926757 5.959229 73.575195 2.757691 6.893066-.895264 13.731445-2.63208 20.419922-4.582886 13.793457-4.022949 23.922851-12.901245 30.854004-25.284546 7.661621-13.687622 3.476074-32.710205-8.958008-42.187256-13.201172-10.062256-28.407715-16.140991-44.219238-20.102173-31.90625-7.992797-64.115235-14.767822-96.068848-22.579345-25.513672-6.237061-50.980469-13.028321-74.629394-24.751587-29.973633-14.858399-56.88379-33.586304-72.201661-64.796997-17.379394-35.409851-21.563476-72.226624-11.21875-110.600098 12.371582-45.890503 39.727539-80.123413 80.839844-103.117187 28.083008-15.706299 58.157227-26.121888 90.578125-28.789551 11.596192-.954163 23.115723-3.248535 34.716309-3.677307 39.211425-1.449463 77.614746 4.054199 115.554199 13.920105 31.554687 8.205688 60.733398 21.570373 88.200195 38.801513 8.996582 5.643921 17.398438 12.300782 25.713379 18.943604 6.95752 5.558716 6.974121 8.049316 1.643555 14.828125-8.84668 11.249939-17.868164 22.366272-26.536621 33.751343-12.080567 15.866027-23.869141 31.95343-35.865235 47.884521-2.534668 3.36615-5.422851 6.466431-8.547363 10.160767-7.561523-4.456787-14.467773-8.367737-21.217285-12.5318-38.482422-23.738891-79.742188-39.59674-125.084473-43.29956-16.963379-1.385315-33.925781-.896118-50.084472 5.887695-10.458496 4.390747-19.840821 10.645447-24.468262 20.941712-10.175781 22.640808-2.672363 38.335937 19.047363 47.890686 21.260742 9.352478 44.112305 14.477417 67.059082 18.917358 43.449219 8.40686 86.570313 18.356384 127.468262 35.835999 25.310547 10.817627 48.586426 24.759887 66.638183 46.258056 9.543458 11.36499 16.826661 23.749512 21.435059 37.944214 13.499512 41.57666 11.699219 82.780274-3.531738 123.280884-13.336914 35.463989-36.887207 62.80249-69.979981 81.572754-23.613769 13.393554-48.871582 22.287597-76.47998 27.002441z"/>
        <path d="m343.527588 1336.427856c-28.132721-15.09021-53.544342-32.815918-74.588104-55.881469-26.524903-29.073242-46.607285-62.276978-58.705872-99.925049-10.341461-32.180298-17.057114-65.159668-15.846771-99.062378 2.129562-59.651794 16.302383-115.90155 51.246597-165.448364 37.016678-52.485291 86.97786-86.95752 148.117081-105.988404 34.695373-10.799682 70.371216-16.223816 106.323028-15.073547 57.848267 1.850952 112.748902 15.680908 160.049988 51.26123 26.342713 19.815186 48.17157 43.911683 64.355225 72.875794 3.08081 5.513733 6.981506 10.570312 10.048706 16.090637 4.6651 8.39624 3.30072 11.410401-5.203919 15.304138-27.179443 12.443665-54.29132 25.035706-81.388244 37.658631-8.432495 3.928283-16.800415 8.008789-25.067566 12.2724-4.055115 2.091247-6.988587 1.33728-9.295288-2.390686-1.399048-2.26117-2.786927-4.547852-3.943421-6.937561-13.591125-28.083191-36.384033-46.162476-64.272339-58.331482-17.843994-7.786194-36.684021-12.311951-56.241607-11.951661-9.23761.170227-18.681214 1.370728-27.616547 3.697754-47.920715 12.480103-84.962097 39.584107-105.632812 85.162659-14.96872 33.005859-19.786713 68.146729-13.213288 104.449219 7.167237 39.582031 25.671448 72.729126 56.502777 98.2677 21.390076 17.718018 46.485566 28.533569 74.42865 31.117554 25.842041 2.389648 51.117676.438598 75.110474-11.148804 25.947937-12.531616 46.742859-30.348022 60.691772-55.76001 6.954895-12.67041 6.765931-12.394409 20.10083-5.991211 24.879578 11.947144 49.948487 23.499756 74.93158 35.23169 11.046082 5.187134 22.074829 10.411377 34.069702 16.070801-1.949463 4.869384-2.996032 9.485473-5.426513 13.19458-8.752686 13.357055-17.426514 26.825683-27.12085 39.493896-25.801575 33.716309-58.056397 59.470947-97.795471 74.916626-41.996765 16.32312-85.60022 24.87207-130.779877 21.886108-46.499268-3.073242-91.548737-12.546875-133.837921-35.060791z"/>
        <path d="m3235.754883 940.140259c-35.96875-19.274231-72.376221-24.762573-111.266358-11.672791-25.521484 8.590271-47.745605 21.965637-66.148437 41.184082-8.418701 8.791748-15.458008 19.276245-21.468506 29.926758-13.645996 24.180115-20.005859 50.609924-20.717773 78.326233-1.309082 50.959106 15.163574 94.926758 52.994629 129.722412 24.56958 22.598633 54.041015 34.773193 87.518798 36.238648 10.936524.478637 22.131104.823974 32.8667-.897461 42.778808-6.860474 74.644775-29.962769 96.419433-67.239624 1.829834-3.13208 3.623535-6.285157 6.00293-10.416138 6.700928 2.685059 13.178222 4.937866 19.364013 7.817261 30.432618 14.165405 60.788086 28.496093 91.168702 42.773071 1.204101.565918 2.402099 1.148804 3.577148 1.771728 7.303223 3.871094 8.136963 5.795411 4.168457 13.347535-4.174805 7.943603-8.502197 15.875488-13.541015 23.283447-14.064698 20.678711-29.095704 40.534302-48.853272 56.378784-18.24585 14.632813-37.513428 27.662354-58.970459 36.947266-27.3125 11.818847-56.151123 18.769653-85.583008 22.25122-53.91748 6.37793-106.302734-1.930786-156.850342-20.741333-31.103515-11.574829-58.689209-29.646362-83.614502-51.694824-35.179931-31.119507-60.342529-68.752685-75.529785-113.270141-12.833007-37.617432-19.452148-76.201172-16.853759-115.786866 1.320556-20.114746 5.464599-40.17456 9.815673-59.932617 9.028565-40.995849 27.423584-77.70166 54.297852-109.931091 33.63501-40.337708 75.695801-68.315247 125.440918-85.298401 36.645019-12.510742 74.368164-19.147095 112.750732-18.293823 61.527588 1.367798 118.953858 17.33789 168.78125 55.422912 15.460938 11.817261 29.111573 25.482361 40.346924 41.289612 9.431153 13.268738 18.070069 27.129273 26.537354 41.045471 6.323486 10.393067 4.389892 14.176575-6.583496 18.83606-13.448243 5.71051-26.645752 12.023498-39.864991 18.259888-21.320068 10.057861-42.564697 20.275451-63.851806 30.403381-4.665528 2.21991-6.935547 1.301758-10.318116-4.235779-3.968261-6.496887-7.688964-13.14978-11.794677-19.55719-9.945313-15.521301-24.189209-26.375-40.241211-36.25769z"/>
        <path d="m3770.212891 1359.494751c-2.471924 1.513428-4.598389 2.644043-6.727295 2.648804-42.314942.094726-84.630371.059326-126.945557.050415-2.600586-.000611-5.201172-.000122-8.375977-.000122-.36499-2.904786-.881103-5.10083-.881591-7.297119-.023682-78.973877-.072754-157.947999.044189-236.921753.085694-57.644776.420654-115.289246.567139-172.934082.011474-4.565857-.581299-9.133301-.957764-14.645386-10.679199-.293274-20.577148-.800049-30.475342-.795166-37.654297.018554-75.308838.272522-112.963134.286377-13.221924.004883-13.333252-.195984-13.228516-13.208191.271484-33.651367.637695-67.301941 1.004639-100.952454.03955-3.61438.334716-7.226013.565918-11.956909 4.319336-.270081 8.142578-.722107 11.965576-.717041 92.625.12384 185.249756.286499 277.874756.464233 52.978027.101685 105.956054.239685 158.934082.3844.973877.002685 1.946777.292663 3.834228.594971.409668 2.275878 1.235596 4.753723 1.245362 7.234924.14746 36.654541.199218 73.309692.214111 109.96466.000732 1.922608-.528565 3.845521-.928223 6.56482-6.484619.393066-12.740234 1.069092-18.999512 1.103393-39.986572.219056-79.973632.276001-119.960449.450135-4.599853.020019-9.197754.434082-14.669433.709228-.420166 4.493347-1.098389 8.364502-1.097901 12.235596.015625 118.294739.093262 236.589538.174317 354.884338.013916 20.314942.085693 40.630005-.213623 61.851929z"/>
    </g>
    <path d="m2349.044434 393.997864c-.00708-92.251496-.00708-183.503205-.00708-275.130959 2.75415-.460403 4.628173-1.047813 6.502441-1.047508 75.634521.012344 151.277832-.586037 226.89917.438911 33.752197.457474 65.646728 9.44458 93.397949 30.263436 17.293701 12.973511 30.272949 29.2276 37.645508 49.322433 10.005127 27.270798 13.710937 55.503968 8.714844 84.456421-4.652588 26.96106-16.368164 50.641724-34.902832 70.575104-11.289551 12.141693-26.230225 19.107635-41.639649 24.861145-3.965088 1.48053-7.824463 3.244659-13.422119 5.584869 2.89209 1.522644 4.062744 2.412537 5.380371 2.793152 53.120361 15.346619 82.818848 52.174957 94.104981 104.678986 6.185302 28.774994 4.464599 57.77005-5.819092 85.617096-15.613526 42.279541-45.437744 69.320495-88.906983 81.64508-17.482422 4.956604-35.322754 7.101624-53.242675 7.2323-74.963135.547058-149.930909.46759-224.896973.59259-2.648682.004456-5.298096-.255493-9.263916-.460144-.779297-45.266601-.028565-90.378662-.133301-135.481994-.104248-44.980438-.266601-89.960755-.410644-135.940918m87.95581 230.016479c35.997559-.016113 71.997559-.295654 107.991699.048279 22.390869.213867 44.501953-.868469 66.428955-6.051025 34.716553-8.205506 57.803467-29.323243 69.006348-62.628601 7.311524-21.736756 8.73291-44.596497 3.194824-67.05188-6.116455-24.801209-17.679443-46.504975-39.563965-61.55719-19.864013-13.66272-41.939209-20.274262-65.70288-20.479798-58.323243-.504394-116.651856-.396881-174.978272-.477996-2.530273-.00351-5.061279.565155-7.337402.836914-3.090821 13.567688-2.818115 208.804474.304931 217.361297zm238.439697-355.576812c.637452-12.049958-.429199-23.919526-3.281494-35.672059-6.385009-26.306961-20.763183-46.178634-44.943603-59.240799-17.271729-9.33023-35.869873-12.829437-54.786377-13.075256-55.627442-.7229-111.27002-.38974-166.906006-.268753-10.757568.023392-11.090332.76503-11.575195 11.243729-.061768 1.33078-.066162 2.665069-.065674 3.997726.023437 59.644318.040039 119.288635.112549 178.932923.003173 2.525817.527588 5.050994.914062 8.5177 4.013916 0 7.289307-.019226 10.564209.00296 41.98291.28418 83.969971 1.034271 125.947266.676117 22.268554-.189972 44.752685-.706543 66.728027-3.904267 36.469238-5.306793 60.781494-26.895294 72.320313-61.934692 2.878906-8.742157 3.348388-18.277862 4.971923-29.275329z"
          fill="#103952"/>
    <path d="m4129.755859 1234c-.000976 42.884766-.000976 84.769531-.000976 127.453979-47.994385 0-95.065674 0-142.053223 0-2.460693-9.65625-1.967773-545.206604.581055-557.149047 46.320312-1.914734 92.80664-.780152 140.489258-.116516.364746 5.927429 1.000488 11.460144 1.002441 16.993164.044434 124.278198.020996 248.556335.007813 372.834533-.001465 12.994629-.016602 25.989258-.026368 39.983887z"
          fill="#103952"/>
    <path d="m4439.424805 287.999451c.000976-56.616974.000976-112.233948.000976-168.904923 15.048828-1.925667 29.174317-.577568 43.960449-1.390167v548.835678c-13.8208-.617493-26.65625-1.062317-39.472168-1.831909-4.617187-.277344-7.531738-3.336853-10.235839-7.083252-22.994629-31.859375-46.179688-63.581116-69.305176-95.346008-27.431641-37.679627-54.880371-75.347138-82.287109-113.045197-32.694825-44.971985-65.340333-89.979523-98.029786-134.95517-21.919922-30.158477-43.825683-60.32724-65.855468-90.40509-6.078125-8.298096-12.55127-16.30838-18.914551-24.394241-.974121-1.237198-2.338379-2.166748-5.077637-4.646546-.706299 4.786072-1.585693 8.060059-1.613037 11.341156-.266846 31.993805-.559082 63.988968-.524902 95.983414.116699 109.653717.357666 219.307282.570068 328.960907.015381 7.998535.246582 15.996704.254395 23.995178.003173 3.242188-.324219 6.484619-.536133 10.367798-14.727539 0-28.627198 0-43.981201 0-1.064454-45.397949-.42627-90.87677-.761231-136.334106-.336426-45.659333-.135742-91.322693-.142334-136.984284-.006348-45.328247.027588-90.656494.033936-135.984741.006591-45.60582.00122-91.211655.00122-137.314796 3.249268-.406754 5.445557-.905213 7.644776-.918862 10.331543-.064133 20.666015.130806 30.995361-.02449 5.511231-.082855 9.406738 2.124534 12.647949 6.512314 18.79541 25.443786 37.762696 50.760284 56.592774 76.178939 25.170898 33.979035 50.316406 67.977265 75.38916 102.029114 45.983398 62.45166 91.993652 124.883972 137.808105 187.459564 17.500489 23.902527 34.400391 48.243287 51.774414 72.239319 5.060547 6.989319 10.812989 13.477112 16.476075 20.476197 4.060547-3.597535 2.999511-7.5448 3.000976-10.871216.007813-15.991089-.551269-31.9823-.554199-47.973572-.015625-78.323669.081543-156.647339.140137-235.971008z"
          fill="#103952"/>
    <path d="m4658.790527 296.000916v67.226715c50.22168 1.206878 99.059571.352295 147.881348.509002 48.904785.156952 97.810059.034485 147.218262.034485v40.878052c-5.27002 0-9.820801-.05072-14.371094.009003-17.656738.23175-35.312988.683624-52.970215.71817-55.65918.108917-111.318848.141968-166.978027.034454-15.98877-.030853-31.975586-.720093-47.965332-.949188-10.187012-.145966-11.590821 1.0466-11.610352 11.452484-.124512 66.645111-.106445 133.290497-.074219 199.935761.000977 2.559997.619629 5.119689 1.017579 8.203125h299.888671c2.26709 14.131958-.161621 27.755676-.536621 41.672729-115.455566 0-229.983398 0-345.43457 0 0-61.004944.002441-121.48822-.000488-181.971527-.00293-60.989624-.383789-121.982147.088379-182.968048.469238-60.584534-1.770996-121.187607-.032227-182.404434h345.635254v41.411911c-100.209961 0-199.312988 0-299.321777 0-.52295 4.81575-1.338379 9.028305-1.382325 13.248916-.425293 40.651993-.720214 81.305374-1.052246 122.95839z"
          fill="#103952"/>
    <path d="m1823.999756 405.540833c-30.214478.205261-59.447876-.599122-90.059448.47409.170166 73.234345-2.061524 145.28653-.003907 218.03598h299.906983v41.762085c-115.56128-.483154-230.25354.352722-344.917114-.026184 0-183.541809 0-365.268921 0-547.394981h344.388305v41.086311c-4.734253 0-8.331787-.000931-11.929199.000137-90.977539.027161-181.955078.000062-272.932373.141938-13.282959.020721-14.752319-2.433274-14.728638 14.996628.06189 45.650131.026245 91.300399.029053 136.950607.001099 16.595733.000244 33.191467.000244 51.088592 9.494019.363343 18.333862.980011 27.174927.996827 84.979126.161621 169.958374.22232 254.937622.311187 3.615234.003784 7.230591.000458 10.609375.000458 2.402344 7.373047 2.833374 28.289764.854736 41.191711-67.314453.127961-134.82251.256318-203.330566.384614z"
          fill="#103952"/>
    <path d="m195.353638 208.305023c-.00148-30.550216-.00148-60.138458-.00148-90.142914h343.395095c2.538208 8.475533 2.876893 28.293518.653748 41.650177-98.931335 0-198.042084 0-297.81514 0-.6073 4.840989-1.514694 8.734589-1.521774 12.629822-.112015 61.649902-.11113 123.299988-.113175 184.950043-.000045 1.287994.271973 2.576019.527741 4.846588 2.934265.290192 5.758194.798676 8.585007.815186 57.644653.336456 115.289367.686431 172.934631.881927 34.656982.117554 69.31488-.032501 103.972351-.030762 2.917664.000122 5.835266.239899 9.401062.396881v40.985688c-97.873138 0-195.344482 0-293.753387 0-.590378 5.129516-1.478928 9.289001-1.486725 13.450134-.122864 65.648895-.143677 131.298035-.126465 196.947082.000671 2.552613.614456 5.105103 1.010574 8.186951h298.941391c3.040955 14.213135 1.474732 27.85553.285523 41.606812-115.150879 0-229.632569 0-344.887482 0 0-152.523011 0-304.36731-.001495-457.173615z"
          fill="#103952"/>
    <path d="m5604.728027 186.713303c-18.763672 17.48439-28.250976 39.047195-29.399414 63.355743-1.161621 24.583023 8.430664 45.46254 28.45166 60.821487 15.757325 12.0878 33.411133 20.652863 52.115235 26.819947 22.08789 7.282501 44.436523 13.786621 66.739746 20.399902 35.711914 10.589142 71.514648 20.890961 104.676758 38.417664 24.218261 12.799743 45.5 28.73645 59.390625 53.203155 8.387695 14.774536 12.35791 30.8172 15.108398 47.248261 4.375 26.135711 1.806153 51.762848-7.055664 76.705841-8.052246 22.664795-20.581543 42.350403-38.944824 58.20697-20.605469 17.793091-44.61377 28.259399-70.837402 34.656616-22.410157 5.466919-45.104004 9.425537-68.060547 8.671448-38.594239-1.267578-77.059082-4.261719-113.571289-18.924316-32.356446-12.993775-60.048829-32.731934-84.698243-57.036255-7.474609-7.370301-7.461425-9.116272-1.705078-17.97052 6.820313-10.491089 16.961426-21.021119 24.212403-24.990601.960937.576111 2.338379 1.013001 3.147949 1.944031 31.855957 36.636902 71.097656 60.485168 119.108887 69.54364 25.296875 4.772583 50.550293 8.562927 76.333007 4.158081 19.369629-3.309143 38.682129-6.845154 56.644043-15.231262 23.913086-11.164246 42.454102-28.664429 51.546387-53.207581 10.449707-28.210388 11.658203-57.507721-2.901367-85.285766-7.727539-14.742524-19.88916-25.522278-34.172363-34.183503-24.421875-14.809631-50.948731-24.300018-78.217774-31.965179-36.800293-10.344269-73.737305-20.264465-109.43164-34.091827-20.85254-8.077759-40.645997-18.12613-57.944825-32.726746-16.362304-13.810333-27.115234-31.350647-32.886718-51.429504-15.837891-55.102265-.643555-101.843598 41.037109-140.12912 21.749023-19.977845 48.050293-31.375656 76.710937-38.457436 43.875977-10.841301 87.303711-8.309189 130.407227 2.837059 41.123047 10.63414 76.789551 31.409607 106.79541 61.643036.930664.937866 1.73877 2.010391 2.509766 3.08783.376953.526382.536133 1.208862 1.185058 2.750549-7.464355 12.792801-18.659179 22.739075-30.135742 33.356415-5.052246-5.419693-9.029785-10.241471-13.56543-14.463471-32.2583-30.027435-70.813476-46.227279-114.135742-52.487945-32.543945-4.70308-63.654785.161056-93.849609 12.183807-12.736328 5.071381-24.291504 12.310516-34.606934 22.56955z"
          fill="#103952"/>
    <path d="m3608.866211 365.304443c31.783935 9.335663 62.061035 20.24643 90.121582 36.609009 42.135986 24.570221 64.441406 61.154236 66.928223 109.925263 1.327636 26.040985-2.113282 51.073883-13.652588 74.77066-11.172119 22.942749-26.729248 41.785461-48.298828 55.863647-25.34375 16.541382-53.291016 24.661866-82.843995 29.570801-31.664306 5.259583-62.950927 2.822571-94.430419-.644104-31.519532-3.471191-61.119141-12.700134-88.726807-28.203491-21.628906-12.146057-41.138916-27.098206-57.806885-45.547241-6.70166-7.41803-6.494629-10.366028-.097168-18.048828 4.684082-5.624878 9.333008-11.279419 13.974365-16.939759 6.275635-7.652588 7.92212-7.839233 14.827881-.957275 17.525879 17.464417 36.389893 33.077942 58.236328 45.054199 20.385254 11.175293 42.054932 18.107117 64.796875 22.222107 16.734375 3.027954 33.52417 6.013489 50.572266 4.844055 29.056641-1.993164 57.770508-6.880066 83.537109-20.967834 27.059815-14.794922 43.717286-38.230896 49.901612-68.796814 5.174804-25.576782 1.97998-49.615296-12.262451-71.857727-6.778809-10.587006-15.830323-18.799347-26.199463-25.671387-21.582764-14.304108-45.51001-23.275391-70.124268-30.64978-33.422119-10.013306-66.876465-19.920075-100.274414-30.013184-20.451904-6.180694-39.760986-14.918487-58.304932-25.607391-34.954834-20.148743-54.173584-50.644959-58.574218-90.113342-5.973877-53.576447 15.725586-95.29242 58.222168-126.705292 18.892089-13.964783 40.486816-22.324883 63.453125-27.863945 28.855468-6.959465 57.745605-9.310707 87.183593-5.628616 44.264893 5.536674 85.957276 18.13607 121.924317 45.556236 11.291748 8.608536 21.408935 18.758255 33.01831 29.048279-4.275146 6.072662-7.744873 11.643356-11.87207 16.674942-3.788818 4.619033-8.235107 8.708648-12.484375 12.938369-5.655029 5.629151-7.010986 5.300736-12.728027-.802154-6.588379-7.033478-13.034912-14.360596-20.487549-20.393555-23.133057-18.725952-49.603272-30.698303-78.73999-36.713531-17.618164-3.637207-35.327393-7.1082-53.421631-5.950119-29.901367 1.913803-58.810059 7.853393-83.700928 25.750396-20.835205 14.980988-36.652588 33.998017-41.424316 60.082367-4.726319 25.834015.962402 48.870392 20.020996 67.905243 15.460449 15.440918 34.322265 25.163391 54.687988 31.906189 25.227295 8.352478 50.750732 15.811096 76.153076 23.634583 6.033447 1.858337 12.093018 3.632141 18.895508 5.719024z"
          fill="#103952"/>
    <path d="m5301.714844 159.97644c-25.265137-7.114944-50.146973-12.034866-75.648926-9.625488-37.64502 3.556656-72.219238 14.447983-98.714844 43.860993-23.051269 25.589187-29.535156 66.53601-12.970703 94.746765 10.024414 17.072967 25.70459 28.578186 43.412109 37.115722 27.9917 13.495758 57.753907 21.790436 87.585938 30.045746 37.819824 10.465637 75.401367 21.779938 110.49707 39.895386 15.762696 8.136383 30.375 17.703918 42.791504 30.647034 18.146485 18.915954 28.857422 41.062988 32.590332 67.028045 4.352051 30.268036 3.070313 59.932099-9.302246 88.142426-11.437012 26.077759-28.430176 47.463806-53.464355 62.69751-24.734375 15.051452-51.415039 22.589721-79.496094 27.406799-32.630859 5.597473-64.878418 2.532898-97.380371-1.194519-31.653809-3.630066-60.851074-13.602417-88.36084-29.182556-20.146484-11.410218-37.856934-25.989624-54.059082-42.412598-7.585449-7.689514-7.586914-10.379272-1.050781-18.763 4.706054-6.036499 9.578125-11.947205 14.487304-17.820496 5.20752-6.229065 7.754395-6.382324 13.746094-.33606 13.87207 13.998291 28.903809 26.436707 45.456543 37.260132 21.518066 14.070313 44.899902 23.111023 69.901367 28.087097 19.595215 3.900086 39.35791 7.47815 59.456055 6.249024 28.436035-1.739014 56.659668-6.483826 81.681152-20.313721 32.046875-17.71289 50.2417-45.646545 52.761719-82.993225 1.844727-27.34082-5.216797-51.461609-24.723633-71.212006-4.399414-4.454193-9.476074-8.347473-14.644043-11.915527-26.979492-18.626923-57.874023-27.95282-88.809082-37.280517-34.671386-10.454194-69.347656-20.932312-103.740234-32.254792-18.396485-6.056488-35.157715-15.974975-50.770508-27.396057-19.648437-14.372955-32.727539-33.349213-39.901367-56.952515-15.644531-51.474365-.455078-94.954635 33.470215-133.622314 6.259277-7.135025 14.469238-12.829742 22.498535-18.09259 29.874512-19.582436 63.091308-29.137451 98.516113-32.069908 37.744629-3.124505 74.296875 2.033111 110.117676 13.994056 30.152344 10.068253 56.939453 25.576187 79.973633 47.52945 4.287597 4.086639 8.74707 7.993789 13.656738 12.46611-1.847656 3.250824-3.114746 6.33432-5.113281 8.833633-5.612305 7.019425-11.340821 13.965805-17.377442 20.619889-5.118652 5.642212-7.773437 5.427368-13.147461.091507-5.435546-5.397278-10.757812-10.923706-16.41748-16.077134-19.310547-17.581405-42.597168-28.080413-67.507324-37.202301z"
          fill="#103952"/>
    <path d="m2945.204834 594.82251c21.706787 20.326782 47.676025 29.498474 75.561768 35.131897 41.915039 8.467712 82.333984 3.504455 120.998535-13.637574 30.357422-13.459045 51.738281-36.821289 65.919189-66.781372 13.689697-28.921875 17.941162-59.908813 18.300537-91.33258.640137-55.966431.140137-111.945618.159424-167.919464.018067-51.98169.067383-103.963379.177734-155.944931.011231-5.229355.540528-10.457634.872315-16.466446h45.090088c.254883 2.778198.86084 6.241348.8479 9.702186-.40625 108.623665-.557129 217.249901-1.513428 325.868981-.304931 34.645508-3.396728 69.157074-15.707519 102.126678-12.648926 33.875427-32.02417 62.851013-61.850586 83.904236-15.579346 10.996826-33.04126 18.848694-51.183838 24.327576-26.205078 7.913574-53.19751 12.363342-80.69043 11.57074-26.307373-.758545-52.694091-2.83899-78.099609-9.727295-43.26416-11.730347-78.37207-35.40271-102.547852-74.196412-21.880859-35.110961-32.356933-73.487731-33.934814-114.408355-1.05249-27.292816-1.224121-54.630371-1.276367-81.948914-.16919-88.302093-.101563-176.60466-.124756-264.907028-.001221-3.880333 0-7.760666 0-12.126579h45.325928c.161621 4.514167.444336 8.691513.441406 12.86866-.044189 65.976715-.226563 131.953491-.162842 197.930084.043457 44.981781-.084228 89.973297.816162 134.941406.637696 31.856995 6.359619 62.773163 21.513184 91.469269 7.894531 14.949402 17.76709 28.081604 31.067871 39.555237z"
          fill="#103952"/>
    <path d="m1554.003418 159.214294c-44.915894-.006439-88.831665-.006439-133.882568-.006439-.585328 6.810532-1.479493 12.639084-1.524781 18.474243-.323852 41.643036-.62207 83.287323-.651977 124.931397-.081909 113.941009-.033814 227.88211-.004029 341.823212.001221 4.657775.33545 9.31549.518677 13.973144.149903 3.809326-1.237427 6.953674-5.314575 7.031799-12.896484.247254-25.800659.091309-39.57019.091309-.478638-5.370178-1.229615-9.917175-1.228028-14.463928.006348-17.655274.400147-35.310486.384278-52.965576-.117676-131.262574-.29834-262.525116-.461548-393.787674-.015381-12.32071.093139-24.64386-.12378-36.961167-.128051-7.280945-.742187-7.780472-8.247558-7.812896-39.287964-.169693-78.576294-.287995-117.864502-.360276-14.255615-.026214-28.511597.178864-42.76709.149613-2.916138-.005997-5.831299-.58783-9.294311-.963639 0-13.453445 0-26.318832 0-39.927597h403.927002v19.378098 20.147613c-7.451539 3.773011-14.826661.959137-21.914917 1.390412-6.964844.423752-13.984375-.053391-21.980103-.141648z"
          fill="#103952"/>
    <path d="m740 665.764526c-26.327209.005555-51.65448.015259-76.981689.020569-2.332581.000488-4.66681.022217-6.997437-.052429-4.177978-.133667-5.577637-2.331543-5.549194-6.469482.376281-54.952515.822876-109.905701.870849-164.85907.106018-121.304138-.004516-242.608475-.026611-363.91272-.000732-3.919388-.000122-7.838768-.000122-12.13205h43.316955c.390748 4.126404 1.121644 8.217644 1.113465 12.307404-.104004 51.985046-.418152 103.969757-.473999 155.954773-.093384 86.978668-.08551 173.957489-.014282 260.936218.0177 21.659302.416076 43.318604.702148 64.977173.047363 3.587586.418457 7.171021.684875 11.484253h265.414368c1.26532 13.971436-.026367 27.393616.047119 41.748291-74.153747 0-147.630066 0-222.106445-.00293z"
          fill="#103952"/>
    <path d="m3916.708984 359.999573c.001954 102.205597.001954 203.411133.001954 305.37384-14.570069 0-28.976563 0-44.00879 0 0-182.566681 0-364.34259 0-546.834946h44.153565c.27832 5.732277.830322 11.611557.808838 17.488724-.27124 74.32431-.624756 148.648316-.955567 223.972382z"
          fill="#103952"/>
    <path d="m1101.506836 366.000366c.057007 100.450165.040283 199.899903-.31897 299.574707-13.314453 0-25.26709.024414-37.21936-.028991-1.606812-.007203-3.211792-.406861-4.069946-.523377-.947022-.742493-1.255005-.907593-1.451783-1.159607-.199463-.255188-.327392-.585266-.418457-.90216-.181518-.632142-.434326-1.274964-.449218-1.918213-.0542-2.329956-.022828-4.661866-.022828-6.993042 0-178.24115 0-356.48227 0-535.780274h43.95044c0 82.378418 0 164.554688.000122 247.730957z"
          fill="#103952"/>
</svg>
