<svg width="900" height="251" viewBox="0 0 900 251" fill="none" xmlns="http://www.w3.org/2000/svg">
<path d="M19.44 63.204H59.4V70.008H19.44V63.204ZM20.304 98.088H65.772V105H12.312V29.4H64.152V36.312H20.304V98.088ZM85.0981 105V29.4H93.0901V98.088H135.426V105H85.0981ZM149.236 105V29.4H157.228V105H149.236ZM197.054 105V36.312H170.486V29.4H231.614V36.312H205.046V105H197.054ZM252.049 63.204H292.009V70.008H252.049V63.204ZM252.913 98.088H298.381V105H244.921V29.4H296.761V36.312H252.913V98.088ZM346.513 105V29.4H379.129C387.553 29.4 394.069 31.092 398.677 34.476C403.357 37.86 405.697 42.648 405.697 48.84C405.697 52.944 404.725 56.4 402.781 59.208C400.909 62.016 398.317 64.14 395.005 65.58C391.765 67.02 388.201 67.74 384.313 67.74L386.149 65.148C390.973 65.148 395.113 65.904 398.569 67.416C402.097 68.856 404.833 71.052 406.777 74.004C408.721 76.884 409.693 80.484 409.693 84.804C409.693 91.212 407.317 96.18 402.565 99.708C397.885 103.236 390.793 105 381.289 105H346.513ZM354.505 98.412H381.181C387.805 98.412 392.881 97.296 396.409 95.064C399.937 92.76 401.701 89.124 401.701 84.156C401.701 79.26 399.937 75.696 396.409 73.464C392.881 71.16 387.805 70.008 381.181 70.008H353.641V63.42H378.589C384.637 63.42 389.317 62.268 392.629 59.964C396.013 57.66 397.705 54.24 397.705 49.704C397.705 45.096 396.013 41.676 392.629 39.444C389.317 37.14 384.637 35.988 378.589 35.988H354.505V98.412ZM458.931 105.648C449.283 105.648 441.687 102.876 436.143 97.332C430.599 91.788 427.827 83.58 427.827 72.708V29.4H435.819V72.384C435.819 81.312 437.835 87.9 441.867 92.148C445.899 96.396 451.587 98.52 458.931 98.52C466.347 98.52 472.071 96.396 476.103 92.148C480.135 87.9 482.151 81.312 482.151 72.384V29.4H489.927V72.708C489.927 83.58 487.155 91.788 481.611 97.332C476.139 102.876 468.579 105.648 458.931 105.648ZM535.394 105.648C529.778 105.648 524.378 104.748 519.194 102.948C514.082 101.076 510.122 98.7 507.314 95.82L510.446 89.664C513.11 92.256 516.674 94.452 521.138 96.252C525.674 97.98 530.426 98.844 535.394 98.844C540.146 98.844 543.998 98.268 546.95 97.116C549.974 95.892 552.17 94.272 553.538 92.256C554.978 90.24 555.698 88.008 555.698 85.56C555.698 82.608 554.834 80.232 553.106 78.432C551.45 76.632 549.254 75.228 546.518 74.22C543.782 73.14 540.758 72.204 537.446 71.412C534.134 70.62 530.822 69.792 527.51 68.928C524.198 67.992 521.138 66.768 518.33 65.256C515.594 63.744 513.362 61.764 511.634 59.316C509.978 56.796 509.15 53.52 509.15 49.488C509.15 45.744 510.122 42.324 512.066 39.228C514.082 36.06 517.142 33.54 521.246 31.668C525.35 29.724 530.606 28.752 537.014 28.752C541.262 28.752 545.474 29.364 549.65 30.588C553.826 31.74 557.426 33.36 560.45 35.448L557.75 41.82C554.51 39.66 551.054 38.076 547.382 37.068C543.782 36.06 540.29 35.556 536.906 35.556C532.37 35.556 528.626 36.168 525.674 37.392C522.722 38.616 520.526 40.272 519.086 42.36C517.718 44.376 517.034 46.68 517.034 49.272C517.034 52.224 517.862 54.6 519.518 56.4C521.246 58.2 523.478 59.604 526.214 60.612C529.022 61.62 532.082 62.52 535.394 63.312C538.706 64.104 541.982 64.968 545.222 65.904C548.534 66.84 551.558 68.064 554.294 69.576C557.102 71.016 559.334 72.96 560.99 75.408C562.718 77.856 563.582 81.06 563.582 85.02C563.582 88.692 562.574 92.112 560.558 95.28C558.542 98.376 555.446 100.896 551.27 102.84C547.166 104.712 541.874 105.648 535.394 105.648ZM581.535 105V29.4H589.527V105H581.535ZM614.665 105V29.4H621.253L673.417 95.064H669.961V29.4H677.845V105H671.257L619.201 39.336H622.657V105H614.665ZM710.189 63.204H750.149V70.008H710.189V63.204ZM711.053 98.088H756.521V105H703.061V29.4H754.901V36.312H711.053V98.088ZM796.691 105.648C791.075 105.648 785.675 104.748 780.491 102.948C775.379 101.076 771.419 98.7 768.611 95.82L771.743 89.664C774.407 92.256 777.971 94.452 782.435 96.252C786.971 97.98 791.723 98.844 796.691 98.844C801.443 98.844 805.295 98.268 808.247 97.116C811.271 95.892 813.467 94.272 814.835 92.256C816.275 90.24 816.995 88.008 816.995 85.56C816.995 82.608 816.131 80.232 814.403 78.432C812.747 76.632 810.551 75.228 807.815 74.22C805.079 73.14 802.055 72.204 798.743 71.412C795.431 70.62 792.119 69.792 788.807 68.928C785.495 67.992 782.435 66.768 779.627 65.256C776.891 63.744 774.659 61.764 772.931 59.316C771.275 56.796 770.447 53.52 770.447 49.488C770.447 45.744 771.419 42.324 773.363 39.228C775.379 36.06 778.439 33.54 782.543 31.668C786.647 29.724 791.903 28.752 798.311 28.752C802.559 28.752 806.771 29.364 810.947 30.588C815.123 31.74 818.723 33.36 821.747 35.448L819.047 41.82C815.807 39.66 812.351 38.076 808.679 37.068C805.079 36.06 801.587 35.556 798.203 35.556C793.667 35.556 789.923 36.168 786.971 37.392C784.019 38.616 781.823 40.272 780.383 42.36C779.015 44.376 778.331 46.68 778.331 49.272C778.331 52.224 779.159 54.6 780.815 56.4C782.543 58.2 784.775 59.604 787.511 60.612C790.319 61.62 793.379 62.52 796.691 63.312C800.003 64.104 803.279 64.968 806.519 65.904C809.831 66.84 812.855 68.064 815.591 69.576C818.399 71.016 820.631 72.96 822.287 75.408C824.015 77.856 824.879 81.06 824.879 85.02C824.879 88.692 823.871 92.112 821.855 95.28C819.839 98.376 816.743 100.896 812.567 102.84C808.463 104.712 803.171 105.648 796.691 105.648ZM863.676 105.648C858.06 105.648 852.66 104.748 847.476 102.948C842.364 101.076 838.404 98.7 835.596 95.82L838.728 89.664C841.392 92.256 844.956 94.452 849.42 96.252C853.956 97.98 858.708 98.844 863.676 98.844C868.428 98.844 872.28 98.268 875.232 97.116C878.256 95.892 880.452 94.272 881.82 92.256C883.26 90.24 883.98 88.008 883.98 85.56C883.98 82.608 883.116 80.232 881.388 78.432C879.732 76.632 877.536 75.228 874.8 74.22C872.064 73.14 869.04 72.204 865.728 71.412C862.416 70.62 859.104 69.792 855.792 68.928C852.48 67.992 849.42 66.768 846.612 65.256C843.876 63.744 841.644 61.764 839.916 59.316C838.26 56.796 837.432 53.52 837.432 49.488C837.432 45.744 838.404 42.324 840.348 39.228C842.364 36.06 845.424 33.54 849.528 31.668C853.632 29.724 858.888 28.752 865.296 28.752C869.544 28.752 873.756 29.364 877.932 30.588C882.108 31.74 885.708 33.36 888.732 35.448L886.032 41.82C882.792 39.66 879.336 38.076 875.664 37.068C872.064 36.06 868.572 35.556 865.188 35.556C860.652 35.556 856.908 36.168 853.956 37.392C851.004 38.616 848.808 40.272 847.368 42.36C846 44.376 845.316 46.68 845.316 49.272C845.316 52.224 846.144 54.6 847.8 56.4C849.528 58.2 851.76 59.604 854.496 60.612C857.304 61.62 860.364 62.52 863.676 63.312C866.988 64.104 870.264 64.968 873.504 65.904C876.816 66.84 879.84 68.064 882.576 69.576C885.384 71.016 887.616 72.96 889.272 75.408C891 77.856 891.864 81.06 891.864 85.02C891.864 88.692 890.856 92.112 888.84 95.28C886.824 98.376 883.728 100.896 879.552 102.84C875.448 104.712 870.156 105.648 863.676 105.648Z" fill="#18181B"/>
<line y1="145" x2="900" y2="145" stroke="#A57C52" stroke-width="8"/>
<path d="M24.453 232.468C21.333 232.468 18.447 231.961 15.795 230.947C13.182 229.894 10.9005 228.432 8.9505 226.56C7.0395 224.649 5.538 222.426 4.446 219.89C3.354 217.356 2.808 214.567 2.808 211.525C2.808 208.483 3.354 205.694 4.446 203.16C5.538 200.625 7.059 198.421 9.009 196.549C10.959 194.638 13.2405 193.176 15.8535 192.161C18.5055 191.109 21.3915 190.582 24.5115 190.582C27.6705 190.582 30.576 191.128 33.228 192.22C35.919 193.273 38.2005 194.852 40.0725 196.959L36.27 200.644C34.71 199.006 32.955 197.797 31.005 197.017C29.055 196.198 26.9685 195.789 24.7455 195.789C22.4445 195.789 20.2995 196.179 18.3105 196.959C16.3605 197.738 14.664 198.83 13.221 200.234C11.778 201.639 10.647 203.316 9.828 205.266C9.048 207.177 8.658 209.263 8.658 211.525C8.658 213.787 9.048 215.893 9.828 217.843C10.647 219.754 11.778 221.412 13.221 222.816C14.664 224.22 16.3605 225.312 18.3105 226.092C20.2995 226.872 22.4445 227.262 24.7455 227.262C26.9685 227.262 29.055 226.872 31.005 226.092C32.955 225.273 34.71 224.025 36.27 222.348L40.0725 226.033C38.2005 228.139 35.919 229.738 33.228 230.83C30.576 231.922 27.651 232.468 24.453 232.468ZM110.799 232.468C107.679 232.468 104.774 231.941 102.083 230.888C99.431 229.835 97.13 228.373 95.18 226.501C93.23 224.59 91.709 222.367 90.617 219.832C89.525 217.297 88.979 214.528 88.979 211.525C88.979 208.522 89.525 205.753 90.617 203.218C91.709 200.683 93.23 198.48 95.18 196.608C97.13 194.697 99.431 193.214 102.083 192.161C104.735 191.109 107.64 190.582 110.799 190.582C113.919 190.582 116.786 191.109 119.399 192.161C122.051 193.176 124.352 194.638 126.302 196.549C128.291 198.421 129.812 200.625 130.865 203.16C131.957 205.694 132.503 208.483 132.503 211.525C132.503 214.567 131.957 217.356 130.865 219.89C129.812 222.426 128.291 224.649 126.302 226.56C124.352 228.432 122.051 229.894 119.399 230.947C116.786 231.961 113.919 232.468 110.799 232.468ZM110.799 227.262C113.061 227.262 115.148 226.872 117.059 226.092C119.009 225.312 120.686 224.22 122.09 222.816C123.533 221.373 124.644 219.696 125.424 217.785C126.243 215.873 126.653 213.787 126.653 211.525C126.653 209.263 126.243 207.177 125.424 205.266C124.644 203.354 123.533 201.697 122.09 200.293C120.686 198.85 119.009 197.738 117.059 196.959C115.148 196.179 113.061 195.789 110.799 195.789C108.498 195.789 106.373 196.179 104.423 196.959C102.512 197.738 100.835 198.85 99.392 200.293C97.949 201.697 96.818 203.354 95.999 205.266C95.219 207.177 94.829 209.263 94.829 211.525C94.829 213.787 95.219 215.873 95.999 217.785C96.818 219.696 97.949 221.373 99.392 222.816C100.835 224.22 102.512 225.312 104.423 226.092C106.373 226.872 108.498 227.262 110.799 227.262ZM186.197 232V191.05H190.994L218.079 224.688H215.564V191.05H221.414V232H216.617L189.531 198.362H192.047V232H186.197ZM278.423 232V191.05H283.22L310.306 224.688H307.79V191.05H313.64V232H308.843L281.758 198.362H284.273V232H278.423ZM375.974 208.717H397.034V213.689H375.974V208.717ZM376.5 226.911H400.368V232H370.65V191.05H399.549V196.14H376.5V226.911ZM472.846 232.468C469.726 232.468 466.84 231.961 464.188 230.947C461.575 229.894 459.294 228.432 457.344 226.56C455.433 224.649 453.931 222.426 452.839 219.89C451.747 217.356 451.201 214.567 451.201 211.525C451.201 208.483 451.747 205.694 452.839 203.16C453.931 200.625 455.452 198.421 457.402 196.549C459.352 194.638 461.634 193.176 464.247 192.161C466.899 191.109 469.785 190.582 472.905 190.582C476.064 190.582 478.969 191.128 481.621 192.22C484.312 193.273 486.594 194.852 488.466 196.959L484.663 200.644C483.103 199.006 481.348 197.797 479.398 197.017C477.448 196.198 475.362 195.789 473.139 195.789C470.838 195.789 468.693 196.179 466.704 196.959C464.754 197.738 463.057 198.83 461.614 200.234C460.171 201.639 459.04 203.316 458.221 205.266C457.441 207.177 457.051 209.263 457.051 211.525C457.051 213.787 457.441 215.893 458.221 217.843C459.04 219.754 460.171 221.412 461.614 222.816C463.057 224.22 464.754 225.312 466.704 226.092C468.693 226.872 470.838 227.262 473.139 227.262C475.362 227.262 477.448 226.872 479.398 226.092C481.348 225.273 483.103 224.025 484.663 222.348L488.466 226.033C486.594 228.139 484.312 229.738 481.621 230.83C478.969 231.922 476.044 232.468 472.846 232.468ZM549.238 232V196.14H535.198V191.05H569.07V196.14H555.03V232H549.238ZM620.194 232V191.05H626.044V232H620.194ZM701.542 232.468C698.422 232.468 695.517 231.941 692.826 230.888C690.174 229.835 687.873 228.373 685.923 226.501C683.973 224.59 682.452 222.367 681.36 219.832C680.268 217.297 679.722 214.528 679.722 211.525C679.722 208.522 680.268 205.753 681.36 203.218C682.452 200.683 683.973 198.48 685.923 196.608C687.873 194.697 690.174 193.214 692.826 192.161C695.478 191.109 698.383 190.582 701.542 190.582C704.662 190.582 707.529 191.109 710.142 192.161C712.794 193.176 715.095 194.638 717.045 196.549C719.034 198.421 720.555 200.625 721.608 203.16C722.7 205.694 723.246 208.483 723.246 211.525C723.246 214.567 722.7 217.356 721.608 219.89C720.555 222.426 719.034 224.649 717.045 226.56C715.095 228.432 712.794 229.894 710.142 230.947C707.529 231.961 704.662 232.468 701.542 232.468ZM701.542 227.262C703.804 227.262 705.891 226.872 707.802 226.092C709.752 225.312 711.429 224.22 712.833 222.816C714.276 221.373 715.387 219.696 716.167 217.785C716.986 215.873 717.396 213.787 717.396 211.525C717.396 209.263 716.986 207.177 716.167 205.266C715.387 203.354 714.276 201.697 712.833 200.293C711.429 198.85 709.752 197.738 707.802 196.959C705.891 196.179 703.804 195.789 701.542 195.789C699.241 195.789 697.116 196.179 695.166 196.959C693.255 197.738 691.578 198.85 690.135 200.293C688.692 201.697 687.561 203.354 686.742 205.266C685.962 207.177 685.572 209.263 685.572 211.525C685.572 213.787 685.962 215.873 686.742 217.785C687.561 219.696 688.692 221.373 690.135 222.816C691.578 224.22 693.255 225.312 695.166 226.092C697.116 226.872 699.241 227.262 701.542 227.262ZM776.939 232V191.05H781.736L808.822 224.688H806.306V191.05H812.156V232H807.359L780.274 198.362H782.789V232H776.939ZM881.1 232.468C877.98 232.468 874.996 232 872.149 231.064C869.302 230.089 867.06 228.841 865.422 227.32L867.586 222.757C869.146 224.122 871.135 225.253 873.553 226.15C875.971 227.047 878.487 227.495 881.1 227.495C883.479 227.495 885.409 227.222 886.891 226.677C888.373 226.131 889.465 225.39 890.167 224.454C890.869 223.478 891.22 222.387 891.22 221.178C891.22 219.774 890.752 218.642 889.816 217.785C888.919 216.927 887.73 216.244 886.248 215.737C884.805 215.191 883.206 214.723 881.451 214.333C879.696 213.943 877.921 213.495 876.127 212.988C874.372 212.442 872.754 211.759 871.272 210.94C869.829 210.121 868.659 209.029 867.762 207.664C866.865 206.26 866.416 204.466 866.416 202.282C866.416 200.176 866.962 198.245 868.054 196.49C869.185 194.696 870.901 193.273 873.202 192.22C875.542 191.128 878.506 190.582 882.094 190.582C884.473 190.582 886.833 190.894 889.173 191.518C891.513 192.142 893.541 193.039 895.257 194.209L893.326 198.889C891.571 197.719 889.719 196.881 887.769 196.374C885.819 195.828 883.927 195.555 882.094 195.555C879.793 195.555 877.902 195.847 876.42 196.432C874.938 197.017 873.846 197.797 873.144 198.772C872.481 199.747 872.149 200.839 872.149 202.048C872.149 203.491 872.598 204.642 873.495 205.5C874.431 206.358 875.62 207.04 877.063 207.547C878.545 208.054 880.164 208.522 881.919 208.951C883.674 209.341 885.429 209.79 887.184 210.297C888.978 210.804 890.596 211.467 892.039 212.286C893.521 213.105 894.711 214.197 895.608 215.562C896.505 216.927 896.953 218.682 896.953 220.826C896.953 222.893 896.388 224.824 895.257 226.618C894.126 228.373 892.371 229.797 889.992 230.888C887.652 231.941 884.688 232.468 881.1 232.468Z" fill="#18181B"/>
</svg>
